<mxfile host="www.draw.io" modified="2019-12-20T19:45:42.242Z" agent="Mozilla/5.0 (Windows NT 10.0; Win64; x64) AppleWebKit/537.36 (KHTML, like Gecko) Chrome/79.0.3945.79 Safari/537.36" etag="nfu3bC_KilsfsFrhqwEs" version="12.4.3" type="github" pages="1">
  <diagram id="dk1aevZG_GAy2XOrY3Qh" name="Page-1">
    <mxGraphModel dx="1776" dy="626" grid="1" gridSize="10" guides="1" tooltips="1" connect="1" arrows="1" fold="1" page="1" pageScale="1" pageWidth="850" pageHeight="1100" math="0" shadow="0">
      <root>
        <mxCell id="0"/>
        <mxCell id="1" parent="0"/>
        <mxCell id="9Xwpoh8mUwRWMNCVPr1P-12" value="Player GameObject" style="rounded=0;whiteSpace=wrap;html=1;fillColor=#FFFFFF;align=left;spacingLeft=4;fontSize=10;fontFamily=Helvetica;" vertex="1" parent="1">
          <mxGeometry x="40" y="500" width="200" height="20" as="geometry"/>
        </mxCell>
        <mxCell id="9Xwpoh8mUwRWMNCVPr1P-13" value="PlayerMovementImplementor" style="rounded=0;whiteSpace=wrap;html=1;fillColor=#A9C4EB;align=left;spacingLeft=4;fontSize=10;fontFamily=Helvetica;" vertex="1" parent="1">
          <mxGeometry x="60" y="520" width="180" height="20" as="geometry"/>
        </mxCell>
        <mxCell id="9Xwpoh8mUwRWMNCVPr1P-48" style="edgeStyle=orthogonalEdgeStyle;rounded=0;orthogonalLoop=1;jettySize=auto;html=1;entryX=0;entryY=0.5;entryDx=0;entryDy=0;fillColor=#FFFFFF;fontFamily=Helvetica;fontSize=10;" edge="1" parent="1" source="9Xwpoh8mUwRWMNCVPr1P-15" target="9Xwpoh8mUwRWMNCVPr1P-24">
          <mxGeometry relative="1" as="geometry">
            <Array as="points">
              <mxPoint x="60" y="610"/>
              <mxPoint x="60" y="640"/>
            </Array>
          </mxGeometry>
        </mxCell>
        <mxCell id="9Xwpoh8mUwRWMNCVPr1P-15" value="IRigidBodyComponent" style="rounded=0;whiteSpace=wrap;html=1;fillColor=#CC99FF;align=left;spacingLeft=4;fontSize=10;fontFamily=Helvetica;" vertex="1" parent="1">
          <mxGeometry x="80" y="600" width="160" height="20" as="geometry"/>
        </mxCell>
        <mxCell id="9Xwpoh8mUwRWMNCVPr1P-51" style="edgeStyle=orthogonalEdgeStyle;rounded=0;orthogonalLoop=1;jettySize=auto;html=1;entryX=1;entryY=0.5;entryDx=0;entryDy=0;fillColor=#FFFFFF;fontFamily=Helvetica;fontSize=10;" edge="1" parent="1" source="9Xwpoh8mUwRWMNCVPr1P-17" target="9Xwpoh8mUwRWMNCVPr1P-23">
          <mxGeometry relative="1" as="geometry">
            <Array as="points">
              <mxPoint x="260" y="570"/>
              <mxPoint x="260" y="680"/>
            </Array>
          </mxGeometry>
        </mxCell>
        <mxCell id="9Xwpoh8mUwRWMNCVPr1P-17" value="ICameraTargetComponent" style="rounded=0;whiteSpace=wrap;html=1;fillColor=#CC99FF;align=left;spacingLeft=4;fontSize=10;fontFamily=Helvetica;" vertex="1" parent="1">
          <mxGeometry x="80" y="560" width="160" height="20" as="geometry"/>
        </mxCell>
        <mxCell id="9Xwpoh8mUwRWMNCVPr1P-49" style="edgeStyle=orthogonalEdgeStyle;rounded=0;orthogonalLoop=1;jettySize=auto;html=1;entryX=0;entryY=0.5;entryDx=0;entryDy=0;fillColor=#FFFFFF;fontFamily=Helvetica;fontSize=10;" edge="1" parent="1" source="9Xwpoh8mUwRWMNCVPr1P-18" target="9Xwpoh8mUwRWMNCVPr1P-26">
          <mxGeometry relative="1" as="geometry">
            <Array as="points">
              <mxPoint x="40" y="590"/>
              <mxPoint x="40" y="660"/>
            </Array>
          </mxGeometry>
        </mxCell>
        <mxCell id="9Xwpoh8mUwRWMNCVPr1P-18" value="ISpeedComponent" style="rounded=0;whiteSpace=wrap;html=1;fillColor=#CC99FF;align=left;spacingLeft=4;fontSize=10;fontFamily=Helvetica;" vertex="1" parent="1">
          <mxGeometry x="80" y="580" width="160" height="20" as="geometry"/>
        </mxCell>
        <mxCell id="9Xwpoh8mUwRWMNCVPr1P-54" style="edgeStyle=orthogonalEdgeStyle;rounded=0;orthogonalLoop=1;jettySize=auto;html=1;fillColor=#FFFFFF;fontFamily=Helvetica;fontSize=10;entryX=0;entryY=0.5;entryDx=0;entryDy=0;" edge="1" parent="1" source="9Xwpoh8mUwRWMNCVPr1P-19" target="9Xwpoh8mUwRWMNCVPr1P-25">
          <mxGeometry relative="1" as="geometry">
            <mxPoint y="681.6279069767443" as="targetPoint"/>
            <Array as="points">
              <mxPoint y="550"/>
              <mxPoint y="700"/>
            </Array>
          </mxGeometry>
        </mxCell>
        <mxCell id="9Xwpoh8mUwRWMNCVPr1P-55" style="edgeStyle=orthogonalEdgeStyle;rounded=0;orthogonalLoop=1;jettySize=auto;html=1;entryX=0;entryY=0.5;entryDx=0;entryDy=0;fillColor=#FFFFFF;fontFamily=Helvetica;fontSize=10;" edge="1" parent="1" source="9Xwpoh8mUwRWMNCVPr1P-19" target="9Xwpoh8mUwRWMNCVPr1P-23">
          <mxGeometry relative="1" as="geometry">
            <Array as="points">
              <mxPoint y="550"/>
              <mxPoint y="680"/>
            </Array>
          </mxGeometry>
        </mxCell>
        <mxCell id="9Xwpoh8mUwRWMNCVPr1P-19" value="ITransformComponent" style="rounded=0;whiteSpace=wrap;html=1;fillColor=#CC99FF;align=left;spacingLeft=4;fontSize=10;fontFamily=Helvetica;" vertex="1" parent="1">
          <mxGeometry x="80" y="540" width="160" height="20" as="geometry"/>
        </mxCell>
        <mxCell id="9Xwpoh8mUwRWMNCVPr1P-22" value="speed (not a component variable)" style="rounded=0;whiteSpace=wrap;html=1;fillColor=#66B2FF;align=left;spacingLeft=4;fontSize=10;fontFamily=Helvetica;" vertex="1" parent="1">
          <mxGeometry x="80" y="710" width="160" height="20" as="geometry"/>
        </mxCell>
        <mxCell id="9Xwpoh8mUwRWMNCVPr1P-23" value="position" style="rounded=0;whiteSpace=wrap;html=1;fillColor=#CCFFFF;align=left;spacingLeft=4;fontSize=10;fontFamily=Helvetica;" vertex="1" parent="1">
          <mxGeometry x="80" y="670" width="160" height="20" as="geometry"/>
        </mxCell>
        <mxCell id="9Xwpoh8mUwRWMNCVPr1P-24" value="isKinematic" style="rounded=0;whiteSpace=wrap;html=1;fillColor=#CCFFFF;align=left;spacingLeft=4;fontSize=10;fontFamily=Helvetica;" vertex="1" parent="1">
          <mxGeometry x="80" y="630" width="160" height="20" as="geometry"/>
        </mxCell>
        <mxCell id="9Xwpoh8mUwRWMNCVPr1P-25" value="rotation" style="rounded=0;whiteSpace=wrap;html=1;fillColor=#CCFFFF;align=left;spacingLeft=4;fontSize=10;fontFamily=Helvetica;" vertex="1" parent="1">
          <mxGeometry x="80" y="690" width="160" height="20" as="geometry"/>
        </mxCell>
        <mxCell id="9Xwpoh8mUwRWMNCVPr1P-26" value="movementSpeed" style="rounded=0;whiteSpace=wrap;html=1;fillColor=#CCFFFF;align=left;spacingLeft=4;fontSize=10;fontFamily=Helvetica;" vertex="1" parent="1">
          <mxGeometry x="80" y="650" width="160" height="20" as="geometry"/>
        </mxCell>
        <mxCell id="9Xwpoh8mUwRWMNCVPr1P-33" value="PlayerEntityDescriptor" style="rounded=0;whiteSpace=wrap;html=1;fillColor=#CCFFCC;align=left;spacingLeft=4;fontSize=10;fontFamily=Helvetica;" vertex="1" parent="1">
          <mxGeometry x="40" y="360" width="200" height="20" as="geometry"/>
        </mxCell>
        <mxCell id="9Xwpoh8mUwRWMNCVPr1P-34" value="IPositionComponent" style="rounded=0;whiteSpace=wrap;html=1;fillColor=#CC99FF;align=left;spacingLeft=4;fontSize=10;fontFamily=Helvetica;" vertex="1" parent="1">
          <mxGeometry x="280" y="40" width="200" height="20" as="geometry"/>
        </mxCell>
        <mxCell id="9Xwpoh8mUwRWMNCVPr1P-35" value="ICameraTargetComponent" style="rounded=0;whiteSpace=wrap;html=1;fillColor=#CC99FF;align=left;spacingLeft=4;fontSize=10;fontFamily=Helvetica;" vertex="1" parent="1">
          <mxGeometry x="40" y="40" width="200" height="20" as="geometry"/>
        </mxCell>
        <mxCell id="9Xwpoh8mUwRWMNCVPr1P-36" value="ISpeedComponent" style="rounded=0;whiteSpace=wrap;html=1;fillColor=#CC99FF;align=left;spacingLeft=4;fontSize=10;fontFamily=Helvetica;" vertex="1" parent="1">
          <mxGeometry x="40" y="100" width="200" height="20" as="geometry"/>
        </mxCell>
        <mxCell id="9Xwpoh8mUwRWMNCVPr1P-37" value="ITransformComponent" style="rounded=0;whiteSpace=wrap;html=1;fillColor=#CC99FF;align=left;spacingLeft=4;fontSize=10;fontFamily=Helvetica;" vertex="1" parent="1">
          <mxGeometry x="520" y="40" width="200" height="20" as="geometry"/>
        </mxCell>
        <mxCell id="9Xwpoh8mUwRWMNCVPr1P-38" value="position" style="rounded=0;whiteSpace=wrap;html=1;fillColor=#CCFFFF;align=left;spacingLeft=4;fontSize=10;fontFamily=Helvetica;" vertex="1" parent="1">
          <mxGeometry x="60" y="60" width="180" height="20" as="geometry"/>
        </mxCell>
        <mxCell id="9Xwpoh8mUwRWMNCVPr1P-39" value="position" style="rounded=0;whiteSpace=wrap;html=1;fillColor=#CCFFFF;align=left;spacingLeft=4;fontSize=10;fontFamily=Helvetica;" vertex="1" parent="1">
          <mxGeometry x="300" y="60" width="180" height="20" as="geometry"/>
        </mxCell>
        <mxCell id="9Xwpoh8mUwRWMNCVPr1P-40" value="movementSpeed" style="rounded=0;whiteSpace=wrap;html=1;fillColor=#CCFFFF;align=left;spacingLeft=4;fontSize=10;fontFamily=Helvetica;" vertex="1" parent="1">
          <mxGeometry x="60" y="120" width="180" height="20" as="geometry"/>
        </mxCell>
        <mxCell id="9Xwpoh8mUwRWMNCVPr1P-41" value="position" style="rounded=0;whiteSpace=wrap;html=1;fillColor=#CCFFFF;align=left;spacingLeft=4;fontSize=10;fontFamily=Helvetica;" vertex="1" parent="1">
          <mxGeometry x="540" y="60" width="180" height="20" as="geometry"/>
        </mxCell>
        <mxCell id="9Xwpoh8mUwRWMNCVPr1P-42" value="rotation" style="rounded=0;whiteSpace=wrap;html=1;fillColor=#CCFFFF;align=left;spacingLeft=4;fontSize=10;fontFamily=Helvetica;" vertex="1" parent="1">
          <mxGeometry x="540" y="80" width="180" height="20" as="geometry"/>
        </mxCell>
        <mxCell id="9Xwpoh8mUwRWMNCVPr1P-56" value="PlayerEntityView" style="rounded=0;whiteSpace=wrap;html=1;fillColor=#FFD966;align=left;spacingLeft=4;fontSize=10;fontFamily=Helvetica;" vertex="1" parent="1">
          <mxGeometry x="40" y="220" width="180" height="20" as="geometry"/>
        </mxCell>
        <mxCell id="9Xwpoh8mUwRWMNCVPr1P-57" value="CameraTargetEntityView" style="rounded=0;whiteSpace=wrap;html=1;fillColor=#FFD966;align=left;spacingLeft=4;fontSize=10;fontFamily=Helvetica;" vertex="1" parent="1">
          <mxGeometry x="280" y="220" width="180" height="20" as="geometry"/>
        </mxCell>
        <mxCell id="9Xwpoh8mUwRWMNCVPr1P-58" value="PlayerInputEntityStruct" style="rounded=0;whiteSpace=wrap;html=1;fillColor=#FFB366;align=left;spacingLeft=4;fontSize=10;fontFamily=Helvetica;" vertex="1" parent="1">
          <mxGeometry x="60" y="420" width="180" height="20" as="geometry"/>
        </mxCell>
        <mxCell id="9Xwpoh8mUwRWMNCVPr1P-60" value="IRigidBodyComponent" style="rounded=0;whiteSpace=wrap;html=1;fillColor=#CC99FF;align=left;spacingLeft=4;fontSize=10;fontFamily=Helvetica;" vertex="1" parent="1">
          <mxGeometry x="60" y="300" width="160" height="20" as="geometry"/>
        </mxCell>
        <mxCell id="9Xwpoh8mUwRWMNCVPr1P-61" value="ISpeedComponent" style="rounded=0;whiteSpace=wrap;html=1;fillColor=#CC99FF;align=left;spacingLeft=4;fontSize=10;fontFamily=Helvetica;" vertex="1" parent="1">
          <mxGeometry x="60" y="280" width="160" height="20" as="geometry"/>
        </mxCell>
        <mxCell id="9Xwpoh8mUwRWMNCVPr1P-62" value="IPositionComponent" style="rounded=0;whiteSpace=wrap;html=1;fillColor=#CC99FF;align=left;spacingLeft=4;fontSize=10;fontFamily=Helvetica;" vertex="1" parent="1">
          <mxGeometry x="60" y="240" width="160" height="20" as="geometry"/>
        </mxCell>
        <mxCell id="9Xwpoh8mUwRWMNCVPr1P-63" value="ITransformComponent" style="rounded=0;whiteSpace=wrap;html=1;fillColor=#CC99FF;align=left;spacingLeft=4;fontSize=10;fontFamily=Helvetica;" vertex="1" parent="1">
          <mxGeometry x="60" y="260" width="160" height="20" as="geometry"/>
        </mxCell>
        <mxCell id="9Xwpoh8mUwRWMNCVPr1P-64" value="IRigidBodyComponent" style="rounded=0;whiteSpace=wrap;html=1;fillColor=#CC99FF;align=left;spacingLeft=4;fontSize=10;fontFamily=Helvetica;" vertex="1" parent="1">
          <mxGeometry x="280" y="100" width="200" height="20" as="geometry"/>
        </mxCell>
        <mxCell id="9Xwpoh8mUwRWMNCVPr1P-65" value="isKinematic" style="rounded=0;whiteSpace=wrap;html=1;fillColor=#CCFFFF;align=left;spacingLeft=4;fontSize=10;fontFamily=Helvetica;" vertex="1" parent="1">
          <mxGeometry x="300" y="120" width="180" height="20" as="geometry"/>
        </mxCell>
        <mxCell id="9Xwpoh8mUwRWMNCVPr1P-66" value="ICameraTargetComponent" style="rounded=0;whiteSpace=wrap;html=1;fillColor=#CC99FF;align=left;spacingLeft=4;fontSize=10;fontFamily=Helvetica;" vertex="1" parent="1">
          <mxGeometry x="300" y="240" width="160" height="20" as="geometry"/>
        </mxCell>
        <mxCell id="9Xwpoh8mUwRWMNCVPr1P-70" value="PlayerInputEntityStruct" style="rounded=0;whiteSpace=wrap;html=1;fillColor=#FFB366;align=left;spacingLeft=4;fontSize=10;fontFamily=Helvetica;" vertex="1" parent="1">
          <mxGeometry x="40" y="160" width="180" height="20" as="geometry"/>
        </mxCell>
        <mxCell id="9Xwpoh8mUwRWMNCVPr1P-71" value="input" style="rounded=0;whiteSpace=wrap;html=1;fillColor=#CCFFFF;align=left;spacingLeft=4;fontSize=10;fontFamily=Helvetica;" vertex="1" parent="1">
          <mxGeometry x="60" y="180" width="160" height="20" as="geometry"/>
        </mxCell>
        <mxCell id="9Xwpoh8mUwRWMNCVPr1P-72" value="PlayerEntityView" style="rounded=0;whiteSpace=wrap;html=1;fillColor=#FFD966;align=left;spacingLeft=4;fontSize=10;fontFamily=Helvetica;" vertex="1" parent="1">
          <mxGeometry x="60" y="380" width="180" height="20" as="geometry"/>
        </mxCell>
        <mxCell id="9Xwpoh8mUwRWMNCVPr1P-73" value="CameraTargetEntityView" style="rounded=0;whiteSpace=wrap;html=1;fillColor=#FFD966;align=left;spacingLeft=4;fontSize=10;fontFamily=Helvetica;" vertex="1" parent="1">
          <mxGeometry x="60" y="400" width="180" height="20" as="geometry"/>
        </mxCell>
        <mxCell id="9Xwpoh8mUwRWMNCVPr1P-74" value="BuildPlayerEntity" style="rounded=1;whiteSpace=wrap;html=1;fillColor=#CCFFE6;fontFamily=Helvetica;fontSize=10;align=center;verticalAlign=middle;spacingLeft=4;spacingTop=0;" vertex="1" parent="1">
          <mxGeometry x="300" y="900" width="160" height="20" as="geometry"/>
        </mxCell>
        <mxCell id="9Xwpoh8mUwRWMNCVPr1P-79" style="edgeStyle=orthogonalEdgeStyle;rounded=0;orthogonalLoop=1;jettySize=auto;html=1;fillColor=#FFFFFF;fontFamily=Helvetica;fontSize=10;" edge="1" parent="1" source="9Xwpoh8mUwRWMNCVPr1P-75" target="9Xwpoh8mUwRWMNCVPr1P-74">
          <mxGeometry relative="1" as="geometry">
            <Array as="points">
              <mxPoint x="130" y="880"/>
              <mxPoint x="380" y="880"/>
            </Array>
          </mxGeometry>
        </mxCell>
        <mxCell id="9Xwpoh8mUwRWMNCVPr1P-75" value="PlayerEntityDescriptor" style="rounded=0;whiteSpace=wrap;html=1;fillColor=#CCFFCC;align=center;spacingLeft=4;fontSize=10;fontFamily=Helvetica;" vertex="1" parent="1">
          <mxGeometry x="60" y="830" width="140" height="20" as="geometry"/>
        </mxCell>
        <mxCell id="9Xwpoh8mUwRWMNCVPr1P-80" style="edgeStyle=orthogonalEdgeStyle;rounded=0;orthogonalLoop=1;jettySize=auto;html=1;fillColor=#FFFFFF;fontFamily=Helvetica;fontSize=10;" edge="1" parent="1" source="9Xwpoh8mUwRWMNCVPr1P-76" target="9Xwpoh8mUwRWMNCVPr1P-74">
          <mxGeometry relative="1" as="geometry">
            <mxPoint x="380" y="900" as="targetPoint"/>
            <Array as="points">
              <mxPoint x="610" y="880"/>
              <mxPoint x="380" y="880"/>
            </Array>
          </mxGeometry>
        </mxCell>
        <mxCell id="9Xwpoh8mUwRWMNCVPr1P-76" value="PlayerMovementImplementor" style="rounded=0;whiteSpace=wrap;html=1;fillColor=#A9C4EB;align=center;spacingLeft=0;fontSize=10;fontFamily=Helvetica;" vertex="1" parent="1">
          <mxGeometry x="540" y="830" width="140" height="20" as="geometry"/>
        </mxCell>
        <mxCell id="9Xwpoh8mUwRWMNCVPr1P-82" style="edgeStyle=orthogonalEdgeStyle;rounded=0;orthogonalLoop=1;jettySize=auto;html=1;fillColor=#FFFFFF;fontFamily=Helvetica;fontSize=10;" edge="1" parent="1" source="9Xwpoh8mUwRWMNCVPr1P-77" target="9Xwpoh8mUwRWMNCVPr1P-74">
          <mxGeometry relative="1" as="geometry">
            <Array as="points">
              <mxPoint x="450" y="880"/>
              <mxPoint x="380" y="880"/>
            </Array>
          </mxGeometry>
        </mxCell>
        <mxCell id="9Xwpoh8mUwRWMNCVPr1P-77" value="Player Group" style="rounded=0;whiteSpace=wrap;html=1;fillColor=#FFE6CC;align=center;spacingLeft=4;fontSize=10;fontFamily=Helvetica;" vertex="1" parent="1">
          <mxGeometry x="380" y="830" width="140" height="20" as="geometry"/>
        </mxCell>
        <mxCell id="9Xwpoh8mUwRWMNCVPr1P-81" style="edgeStyle=orthogonalEdgeStyle;rounded=0;orthogonalLoop=1;jettySize=auto;html=1;fillColor=#FFFFFF;fontFamily=Helvetica;fontSize=10;" edge="1" parent="1" source="9Xwpoh8mUwRWMNCVPr1P-78" target="9Xwpoh8mUwRWMNCVPr1P-74">
          <mxGeometry relative="1" as="geometry">
            <Array as="points">
              <mxPoint x="290" y="880"/>
              <mxPoint x="380" y="880"/>
            </Array>
          </mxGeometry>
        </mxCell>
        <mxCell id="9Xwpoh8mUwRWMNCVPr1P-78" value="Player GameObject ID" style="rounded=0;whiteSpace=wrap;html=1;fillColor=#CCFFFF;align=center;spacingLeft=4;fontSize=10;fontFamily=Helvetica;" vertex="1" parent="1">
          <mxGeometry x="220" y="830" width="140" height="20" as="geometry"/>
        </mxCell>
      </root>
    </mxGraphModel>
  </diagram>
</mxfile>
